<mxfile host="app.diagrams.net" modified="2022-01-18T06:14:46.744Z" agent="5.0 (X11; Linux x86_64) AppleWebKit/537.36 (KHTML, like Gecko) Chrome/96.0.4664.110 Safari/537.36" etag="QanCs0ocky-3qzJj798q" version="16.2.7" type="github" pages="4">
  <diagram id="xtKQnjgpVvbXCNbtHi_e" name="同义词">
    <mxGraphModel dx="710" dy="432" grid="1" gridSize="10" guides="1" tooltips="1" connect="1" arrows="1" fold="1" page="1" pageScale="1" pageWidth="827" pageHeight="1169" math="0" shadow="0">
      <root>
        <mxCell id="0" />
        <mxCell id="1" parent="0" />
        <mxCell id="H9HBow9I8AUXc5h7VtGF-3" value="2" style="verticalLabelPosition=bottom;verticalAlign=top;html=1;shape=mxgraph.basic.patternFillRect;fillStyle=diag;step=5;fillStrokeWidth=0.2;fillStrokeColor=#dddddd;shadow=0;" vertex="1" parent="1">
          <mxGeometry x="230" y="300" width="60" height="40" as="geometry" />
        </mxCell>
        <mxCell id="H9HBow9I8AUXc5h7VtGF-4" value="3" style="verticalLabelPosition=bottom;verticalAlign=top;html=1;shape=mxgraph.basic.patternFillRect;fillStyle=diag;step=5;fillStrokeWidth=0.2;fillStrokeColor=#dddddd;shadow=0;" vertex="1" parent="1">
          <mxGeometry x="290" y="300" width="60" height="40" as="geometry" />
        </mxCell>
        <mxCell id="H9HBow9I8AUXc5h7VtGF-5" value="4" style="verticalLabelPosition=bottom;verticalAlign=top;html=1;shape=mxgraph.basic.patternFillRect;fillStyle=diag;step=5;fillStrokeWidth=0.2;fillStrokeColor=#dddddd;shadow=0;" vertex="1" parent="1">
          <mxGeometry x="350" y="300" width="60" height="40" as="geometry" />
        </mxCell>
        <mxCell id="H9HBow9I8AUXc5h7VtGF-7" value="1" style="verticalLabelPosition=bottom;verticalAlign=top;html=1;shape=mxgraph.basic.patternFillRect;fillStyle=diag;step=5;fillStrokeWidth=0.2;fillStrokeColor=#dddddd;shadow=0;fillColor=#bac8d3;strokeColor=#23445d;" vertex="1" parent="1">
          <mxGeometry x="170" y="300" width="60" height="40" as="geometry" />
        </mxCell>
        <mxCell id="H9HBow9I8AUXc5h7VtGF-8" value="9" style="verticalLabelPosition=bottom;verticalAlign=top;html=1;shape=mxgraph.basic.patternFillRect;fillStyle=diag;step=5;fillStrokeWidth=0.2;fillStrokeColor=#dddddd;shadow=0;" vertex="1" parent="1">
          <mxGeometry x="650" y="300" width="60" height="40" as="geometry" />
        </mxCell>
        <mxCell id="H9HBow9I8AUXc5h7VtGF-10" value="5" style="verticalLabelPosition=bottom;verticalAlign=top;html=1;shape=mxgraph.basic.patternFillRect;fillStyle=diag;step=5;fillStrokeWidth=0.2;fillStrokeColor=#dddddd;shadow=0;fillColor=#bac8d3;strokeColor=#23445d;" vertex="1" parent="1">
          <mxGeometry x="410" y="300" width="60" height="40" as="geometry" />
        </mxCell>
        <mxCell id="H9HBow9I8AUXc5h7VtGF-11" value="6" style="verticalLabelPosition=bottom;verticalAlign=top;html=1;shape=mxgraph.basic.patternFillRect;fillStyle=diag;step=5;fillStrokeWidth=0.2;fillStrokeColor=#dddddd;shadow=0;" vertex="1" parent="1">
          <mxGeometry x="470" y="300" width="60" height="40" as="geometry" />
        </mxCell>
        <mxCell id="H9HBow9I8AUXc5h7VtGF-12" value="7" style="verticalLabelPosition=bottom;verticalAlign=top;html=1;shape=mxgraph.basic.patternFillRect;fillStyle=diag;step=5;fillStrokeWidth=0.2;fillStrokeColor=#dddddd;shadow=0;fillColor=#bac8d3;strokeColor=#23445d;" vertex="1" parent="1">
          <mxGeometry x="530" y="300" width="60" height="40" as="geometry" />
        </mxCell>
        <mxCell id="H9HBow9I8AUXc5h7VtGF-13" value="8" style="verticalLabelPosition=bottom;verticalAlign=top;html=1;shape=mxgraph.basic.patternFillRect;fillStyle=diag;step=5;fillStrokeWidth=0.2;fillStrokeColor=#dddddd;shadow=0;" vertex="1" parent="1">
          <mxGeometry x="590" y="300" width="60" height="40" as="geometry" />
        </mxCell>
        <mxCell id="H9HBow9I8AUXc5h7VtGF-16" value="0" style="verticalLabelPosition=bottom;verticalAlign=top;html=1;shape=mxgraph.basic.patternFillRect;fillStyle=diag;step=5;fillStrokeWidth=0.2;fillStrokeColor=#dddddd;shadow=0;" vertex="1" parent="1">
          <mxGeometry x="110" y="300" width="60" height="40" as="geometry" />
        </mxCell>
        <mxCell id="H9HBow9I8AUXc5h7VtGF-17" value="&lt;font face=&quot;Courier New&quot;&gt;HASH FUNCTION: f(key)=key%10&lt;/font&gt;" style="rounded=1;whiteSpace=wrap;html=1;shadow=0;fillColor=#ffcc99;labelBackgroundColor=none;strokeColor=#36393d;" vertex="1" parent="1">
          <mxGeometry x="130" y="230" width="550" height="30" as="geometry" />
        </mxCell>
        <mxCell id="H9HBow9I8AUXc5h7VtGF-25" style="edgeStyle=orthogonalEdgeStyle;rounded=0;orthogonalLoop=1;jettySize=auto;html=1;exitX=0.5;exitY=1;exitDx=0;exitDy=0;entryX=0.5;entryY=0;entryDx=0;entryDy=0;entryPerimeter=0;fontFamily=Courier New;fontColor=#1A1A1A;dashed=1;strokeWidth=2;strokeColor=#808080;" edge="1" parent="1" source="H9HBow9I8AUXc5h7VtGF-19" target="H9HBow9I8AUXc5h7VtGF-10">
          <mxGeometry relative="1" as="geometry" />
        </mxCell>
        <mxCell id="H9HBow9I8AUXc5h7VtGF-19" value="25" style="text;html=1;strokeColor=#10739e;fillColor=#b1ddf0;align=center;verticalAlign=middle;whiteSpace=wrap;rounded=0;shadow=0;labelBackgroundColor=none;fontFamily=Courier New;" vertex="1" parent="1">
          <mxGeometry x="410" y="140" width="60" height="30" as="geometry" />
        </mxCell>
        <mxCell id="H9HBow9I8AUXc5h7VtGF-26" value="47" style="text;html=1;strokeColor=#10739e;fillColor=#b1ddf0;align=center;verticalAlign=middle;whiteSpace=wrap;rounded=0;shadow=0;labelBackgroundColor=none;fontFamily=Courier New;" vertex="1" parent="1">
          <mxGeometry x="530" y="140" width="60" height="30" as="geometry" />
        </mxCell>
        <mxCell id="H9HBow9I8AUXc5h7VtGF-29" style="edgeStyle=orthogonalEdgeStyle;rounded=0;orthogonalLoop=1;jettySize=auto;html=1;exitX=0.5;exitY=1;exitDx=0;exitDy=0;entryX=0.5;entryY=0;entryDx=0;entryDy=0;entryPerimeter=0;fontFamily=Courier New;fontColor=#1A1A1A;dashed=1;strokeWidth=2;strokeColor=#808080;" edge="1" parent="1" source="H9HBow9I8AUXc5h7VtGF-26" target="H9HBow9I8AUXc5h7VtGF-12">
          <mxGeometry relative="1" as="geometry">
            <mxPoint x="450" y="180" as="sourcePoint" />
            <mxPoint x="450" y="310" as="targetPoint" />
          </mxGeometry>
        </mxCell>
        <mxCell id="H9HBow9I8AUXc5h7VtGF-30" value="25" style="text;html=1;strokeColor=none;fillColor=none;align=center;verticalAlign=middle;whiteSpace=wrap;rounded=0;shadow=0;labelBackgroundColor=none;fontFamily=Courier New;fontColor=#1A1A1A;" vertex="1" parent="1">
          <mxGeometry x="410" y="305" width="60" height="30" as="geometry" />
        </mxCell>
        <mxCell id="H9HBow9I8AUXc5h7VtGF-31" value="47" style="text;html=1;strokeColor=none;fillColor=none;align=center;verticalAlign=middle;whiteSpace=wrap;rounded=0;shadow=0;labelBackgroundColor=none;fontFamily=Courier New;fontColor=#1A1A1A;" vertex="1" parent="1">
          <mxGeometry x="530" y="305" width="60" height="30" as="geometry" />
        </mxCell>
        <mxCell id="H9HBow9I8AUXc5h7VtGF-34" style="edgeStyle=orthogonalEdgeStyle;rounded=0;orthogonalLoop=1;jettySize=auto;html=1;entryX=0.5;entryY=0;entryDx=0;entryDy=0;entryPerimeter=0;dashed=1;fontFamily=Courier New;fontColor=#1A1A1A;strokeColor=#808080;strokeWidth=2;" edge="1" parent="1" source="H9HBow9I8AUXc5h7VtGF-32" target="H9HBow9I8AUXc5h7VtGF-7">
          <mxGeometry relative="1" as="geometry">
            <Array as="points">
              <mxPoint x="160" y="270" />
              <mxPoint x="200" y="270" />
            </Array>
          </mxGeometry>
        </mxCell>
        <mxCell id="H9HBow9I8AUXc5h7VtGF-32" value="21" style="text;html=1;strokeColor=#10739e;fillColor=#b1ddf0;align=center;verticalAlign=middle;whiteSpace=wrap;rounded=0;shadow=0;labelBackgroundColor=none;fontFamily=Courier New;" vertex="1" parent="1">
          <mxGeometry x="130" y="140" width="60" height="30" as="geometry" />
        </mxCell>
        <mxCell id="H9HBow9I8AUXc5h7VtGF-35" style="edgeStyle=orthogonalEdgeStyle;rounded=0;orthogonalLoop=1;jettySize=auto;html=1;exitX=0.5;exitY=1;exitDx=0;exitDy=0;dashed=1;fontFamily=Courier New;fontColor=#1A1A1A;strokeColor=#808080;strokeWidth=2;" edge="1" parent="1" source="H9HBow9I8AUXc5h7VtGF-33">
          <mxGeometry relative="1" as="geometry">
            <mxPoint x="200" y="300" as="targetPoint" />
            <Array as="points">
              <mxPoint x="240" y="270" />
              <mxPoint x="200" y="270" />
            </Array>
          </mxGeometry>
        </mxCell>
        <mxCell id="H9HBow9I8AUXc5h7VtGF-33" value="31" style="text;html=1;strokeColor=#10739e;fillColor=#b1ddf0;align=center;verticalAlign=middle;whiteSpace=wrap;rounded=0;shadow=0;labelBackgroundColor=none;fontFamily=Courier New;" vertex="1" parent="1">
          <mxGeometry x="210" y="140" width="60" height="30" as="geometry" />
        </mxCell>
        <mxCell id="H9HBow9I8AUXc5h7VtGF-36" value="21 or 31?" style="text;html=1;strokeColor=none;fillColor=none;align=center;verticalAlign=middle;whiteSpace=wrap;rounded=0;shadow=0;labelBackgroundColor=none;fontFamily=Courier New;fontColor=#1A1A1A;" vertex="1" parent="1">
          <mxGeometry x="170" y="305" width="60" height="30" as="geometry" />
        </mxCell>
        <mxCell id="H9HBow9I8AUXc5h7VtGF-37" value="&lt;font style=&quot;font-size: 19px;&quot;&gt;同义词问题&lt;/font&gt;" style="text;html=1;strokeColor=none;fillColor=none;align=center;verticalAlign=middle;whiteSpace=wrap;rounded=0;shadow=0;labelBackgroundColor=none;fontFamily=Garamond;fontColor=#808080;fontSize=19;fontStyle=1" vertex="1" parent="1">
          <mxGeometry x="300" y="90" width="190" height="40" as="geometry" />
        </mxCell>
        <mxCell id="H9HBow9I8AUXc5h7VtGF-38" value="@gufeijun" style="text;html=1;strokeColor=none;fillColor=none;align=center;verticalAlign=middle;whiteSpace=wrap;rounded=0;shadow=0;labelBackgroundColor=none;fontFamily=Times New Roman;fontSize=13;fontColor=#808080;fontStyle=0" vertex="1" parent="1">
          <mxGeometry x="650" y="120" width="60" height="30" as="geometry" />
        </mxCell>
        <mxCell id="H9HBow9I8AUXc5h7VtGF-39" value="buckets:" style="text;html=1;strokeColor=none;fillColor=none;align=center;verticalAlign=middle;whiteSpace=wrap;rounded=0;shadow=0;labelBackgroundColor=none;fontFamily=Times New Roman;fontSize=16;fontColor=#000000;" vertex="1" parent="1">
          <mxGeometry x="50" y="305" width="60" height="30" as="geometry" />
        </mxCell>
        <mxCell id="H9HBow9I8AUXc5h7VtGF-40" value="keys:" style="text;html=1;strokeColor=none;fillColor=none;align=center;verticalAlign=middle;whiteSpace=wrap;rounded=0;shadow=0;labelBackgroundColor=none;fontFamily=Times New Roman;fontSize=16;fontColor=#000000;" vertex="1" parent="1">
          <mxGeometry x="50" y="140" width="60" height="30" as="geometry" />
        </mxCell>
      </root>
    </mxGraphModel>
  </diagram>
  <diagram id="kMAPH57aQXz9nxlQyJpt" name="开放地址法">
    <mxGraphModel dx="710" dy="493" grid="1" gridSize="10" guides="1" tooltips="1" connect="1" arrows="1" fold="1" page="1" pageScale="1" pageWidth="827" pageHeight="1169" math="0" shadow="0">
      <root>
        <mxCell id="a-Tq3ZbMfdnNFXaDVvVo-0" />
        <mxCell id="a-Tq3ZbMfdnNFXaDVvVo-1" parent="a-Tq3ZbMfdnNFXaDVvVo-0" />
        <mxCell id="n4N5ckflXkP3XZFumY6l-0" value="&lt;span style=&quot;color: rgba(0 , 0 , 0 , 0) ; font-family: monospace ; font-size: 0px&quot;&gt;%3CmxGraphModel%3E%3Croot%3E%3CmxCell%20id%3D%220%22%2F%3E%3CmxCell%20id%3D%221%22%20parent%3D%220%22%2F%3E%3CmxCell%20id%3D%222%22%20value%3D%22buckets%3A%22%20style%3D%22text%3Bhtml%3D1%3BstrokeColor%3Dnone%3BfillColor%3Dnone%3Balign%3Dcenter%3BverticalAlign%3Dmiddle%3BwhiteSpace%3Dwrap%3Brounded%3D0%3Bshadow%3D0%3BlabelBackgroundColor%3Dnone%3BfontFamily%3DTimes%20New%20Roman%3BfontSize%3D16%3BfontColor%3D%23000000%3B%22%20vertex%3D%221%22%20parent%3D%221%22%3E%3CmxGeometry%20x%3D%2250%22%20y%3D%22305%22%20width%3D%2260%22%20height%3D%2230%22%20as%3D%22geometry%22%2F%3E%3C%2FmxCell%3E%3C%2Froot%3E%3C%2FmxGraphModel%3E&lt;/span&gt;" style="text;html=1;align=center;verticalAlign=middle;resizable=0;points=[];autosize=1;strokeColor=none;fillColor=none;fontSize=16;fontFamily=Times New Roman;fontColor=#000000;" vertex="1" parent="a-Tq3ZbMfdnNFXaDVvVo-1">
          <mxGeometry x="160" y="90" width="20" height="30" as="geometry" />
        </mxCell>
        <mxCell id="_UCyFSGd0wtt6_ueAOWK-0" value="2" style="verticalLabelPosition=bottom;verticalAlign=top;html=1;shape=mxgraph.basic.patternFillRect;fillStyle=diag;step=5;fillStrokeWidth=0.2;fillStrokeColor=#dddddd;shadow=0;fillColor=#bac8d3;strokeColor=#23445d;" vertex="1" parent="a-Tq3ZbMfdnNFXaDVvVo-1">
          <mxGeometry x="260" y="315" width="60" height="40" as="geometry" />
        </mxCell>
        <mxCell id="_UCyFSGd0wtt6_ueAOWK-1" value="3" style="verticalLabelPosition=bottom;verticalAlign=top;html=1;shape=mxgraph.basic.patternFillRect;fillStyle=diag;step=5;fillStrokeWidth=0.2;fillStrokeColor=#dddddd;shadow=0;fillColor=#bac8d3;strokeColor=#23445d;" vertex="1" parent="a-Tq3ZbMfdnNFXaDVvVo-1">
          <mxGeometry x="320" y="315" width="60" height="40" as="geometry" />
        </mxCell>
        <mxCell id="_UCyFSGd0wtt6_ueAOWK-2" value="4" style="verticalLabelPosition=bottom;verticalAlign=top;html=1;shape=mxgraph.basic.patternFillRect;fillStyle=diag;step=5;fillStrokeWidth=0.2;fillStrokeColor=#dddddd;shadow=0;fillColor=#bac8d3;strokeColor=#23445d;" vertex="1" parent="a-Tq3ZbMfdnNFXaDVvVo-1">
          <mxGeometry x="380" y="315" width="60" height="40" as="geometry" />
        </mxCell>
        <mxCell id="_UCyFSGd0wtt6_ueAOWK-3" value="1" style="verticalLabelPosition=bottom;verticalAlign=top;html=1;shape=mxgraph.basic.patternFillRect;fillStyle=diag;step=5;fillStrokeWidth=0.2;fillStrokeColor=#dddddd;shadow=0;fillColor=#bac8d3;strokeColor=#23445d;" vertex="1" parent="a-Tq3ZbMfdnNFXaDVvVo-1">
          <mxGeometry x="200" y="315" width="60" height="40" as="geometry" />
        </mxCell>
        <mxCell id="_UCyFSGd0wtt6_ueAOWK-4" value="9" style="verticalLabelPosition=bottom;verticalAlign=top;html=1;shape=mxgraph.basic.patternFillRect;fillStyle=diag;step=5;fillStrokeWidth=0.2;fillStrokeColor=#dddddd;shadow=0;" vertex="1" parent="a-Tq3ZbMfdnNFXaDVvVo-1">
          <mxGeometry x="680" y="315" width="60" height="40" as="geometry" />
        </mxCell>
        <mxCell id="_UCyFSGd0wtt6_ueAOWK-5" value="5" style="verticalLabelPosition=bottom;verticalAlign=top;html=1;shape=mxgraph.basic.patternFillRect;fillStyle=diag;step=5;fillStrokeWidth=0.2;fillStrokeColor=#dddddd;shadow=0;" vertex="1" parent="a-Tq3ZbMfdnNFXaDVvVo-1">
          <mxGeometry x="440" y="315" width="60" height="40" as="geometry" />
        </mxCell>
        <mxCell id="_UCyFSGd0wtt6_ueAOWK-6" value="6" style="verticalLabelPosition=bottom;verticalAlign=top;html=1;shape=mxgraph.basic.patternFillRect;fillStyle=diag;step=5;fillStrokeWidth=0.2;fillStrokeColor=#dddddd;shadow=0;" vertex="1" parent="a-Tq3ZbMfdnNFXaDVvVo-1">
          <mxGeometry x="500" y="315" width="60" height="40" as="geometry" />
        </mxCell>
        <mxCell id="_UCyFSGd0wtt6_ueAOWK-7" value="7" style="verticalLabelPosition=bottom;verticalAlign=top;html=1;shape=mxgraph.basic.patternFillRect;fillStyle=diag;step=5;fillStrokeWidth=0.2;fillStrokeColor=#dddddd;shadow=0;fillColor=#bac8d3;strokeColor=#23445d;" vertex="1" parent="a-Tq3ZbMfdnNFXaDVvVo-1">
          <mxGeometry x="560" y="315" width="60" height="40" as="geometry" />
        </mxCell>
        <mxCell id="_UCyFSGd0wtt6_ueAOWK-8" value="8" style="verticalLabelPosition=bottom;verticalAlign=top;html=1;shape=mxgraph.basic.patternFillRect;fillStyle=diag;step=5;fillStrokeWidth=0.2;fillStrokeColor=#dddddd;shadow=0;" vertex="1" parent="a-Tq3ZbMfdnNFXaDVvVo-1">
          <mxGeometry x="620" y="315" width="60" height="40" as="geometry" />
        </mxCell>
        <mxCell id="_UCyFSGd0wtt6_ueAOWK-9" value="0" style="verticalLabelPosition=bottom;verticalAlign=top;html=1;shape=mxgraph.basic.patternFillRect;fillStyle=diag;step=5;fillStrokeWidth=0.2;fillStrokeColor=#dddddd;shadow=0;" vertex="1" parent="a-Tq3ZbMfdnNFXaDVvVo-1">
          <mxGeometry x="140" y="315" width="60" height="40" as="geometry" />
        </mxCell>
        <mxCell id="_UCyFSGd0wtt6_ueAOWK-10" value="&lt;font face=&quot;Courier New&quot;&gt;HASH FUNCTION: f(key)=key%10&lt;/font&gt;" style="rounded=1;whiteSpace=wrap;html=1;shadow=0;fillColor=#ffcc99;labelBackgroundColor=none;strokeColor=#36393d;" vertex="1" parent="a-Tq3ZbMfdnNFXaDVvVo-1">
          <mxGeometry x="160" y="245" width="550" height="30" as="geometry" />
        </mxCell>
        <mxCell id="_UCyFSGd0wtt6_ueAOWK-11" style="edgeStyle=orthogonalEdgeStyle;rounded=0;orthogonalLoop=1;jettySize=auto;html=1;exitX=0.5;exitY=1;exitDx=0;exitDy=0;entryX=0.5;entryY=0;entryDx=0;entryDy=0;entryPerimeter=0;fontFamily=Courier New;fontColor=#1A1A1A;dashed=1;strokeWidth=2;strokeColor=#808080;" edge="1" parent="a-Tq3ZbMfdnNFXaDVvVo-1" source="_UCyFSGd0wtt6_ueAOWK-12" target="_UCyFSGd0wtt6_ueAOWK-1">
          <mxGeometry relative="1" as="geometry" />
        </mxCell>
        <mxCell id="_UCyFSGd0wtt6_ueAOWK-12" value="23" style="text;html=1;strokeColor=#10739e;fillColor=#b1ddf0;align=center;verticalAlign=middle;whiteSpace=wrap;rounded=0;shadow=0;labelBackgroundColor=none;fontFamily=Courier New;" vertex="1" parent="a-Tq3ZbMfdnNFXaDVvVo-1">
          <mxGeometry x="332.5" y="155" width="37.5" height="30" as="geometry" />
        </mxCell>
        <mxCell id="_UCyFSGd0wtt6_ueAOWK-14" style="edgeStyle=orthogonalEdgeStyle;rounded=0;orthogonalLoop=1;jettySize=auto;html=1;entryX=0.5;entryY=0;entryDx=0;entryDy=0;entryPerimeter=0;fontFamily=Courier New;fontColor=#1A1A1A;dashed=1;strokeWidth=2;strokeColor=#808080;" edge="1" parent="a-Tq3ZbMfdnNFXaDVvVo-1" target="_UCyFSGd0wtt6_ueAOWK-7">
          <mxGeometry relative="1" as="geometry">
            <mxPoint x="590" y="185" as="sourcePoint" />
            <mxPoint x="480" y="325" as="targetPoint" />
          </mxGeometry>
        </mxCell>
        <mxCell id="_UCyFSGd0wtt6_ueAOWK-16" value="47" style="text;html=1;strokeColor=none;fillColor=none;align=center;verticalAlign=middle;whiteSpace=wrap;rounded=0;shadow=0;labelBackgroundColor=none;fontFamily=Courier New;fontColor=#1A1A1A;" vertex="1" parent="a-Tq3ZbMfdnNFXaDVvVo-1">
          <mxGeometry x="560" y="320" width="60" height="30" as="geometry" />
        </mxCell>
        <mxCell id="_UCyFSGd0wtt6_ueAOWK-17" style="edgeStyle=orthogonalEdgeStyle;rounded=0;orthogonalLoop=1;jettySize=auto;html=1;entryX=0.5;entryY=0;entryDx=0;entryDy=0;entryPerimeter=0;dashed=1;fontFamily=Courier New;fontColor=#1A1A1A;strokeColor=#808080;strokeWidth=2;" edge="1" parent="a-Tq3ZbMfdnNFXaDVvVo-1" source="_UCyFSGd0wtt6_ueAOWK-18" target="_UCyFSGd0wtt6_ueAOWK-3">
          <mxGeometry relative="1" as="geometry">
            <Array as="points">
              <mxPoint x="230" y="240" />
              <mxPoint x="230" y="240" />
            </Array>
          </mxGeometry>
        </mxCell>
        <mxCell id="_UCyFSGd0wtt6_ueAOWK-18" value="21" style="text;html=1;strokeColor=#10739e;fillColor=#b1ddf0;align=center;verticalAlign=middle;whiteSpace=wrap;rounded=0;shadow=0;labelBackgroundColor=none;fontFamily=Courier New;" vertex="1" parent="a-Tq3ZbMfdnNFXaDVvVo-1">
          <mxGeometry x="212.5" y="155" width="35" height="30" as="geometry" />
        </mxCell>
        <mxCell id="_UCyFSGd0wtt6_ueAOWK-20" value="31" style="text;html=1;strokeColor=#10739e;fillColor=#b1ddf0;align=center;verticalAlign=middle;whiteSpace=wrap;rounded=0;shadow=0;labelBackgroundColor=none;fontFamily=Courier New;" vertex="1" parent="a-Tq3ZbMfdnNFXaDVvVo-1">
          <mxGeometry x="272.5" y="155" width="35" height="30" as="geometry" />
        </mxCell>
        <mxCell id="_UCyFSGd0wtt6_ueAOWK-21" value="21&amp;nbsp;" style="text;html=1;strokeColor=none;fillColor=none;align=center;verticalAlign=middle;whiteSpace=wrap;rounded=0;shadow=0;labelBackgroundColor=none;fontFamily=Courier New;fontColor=#1A1A1A;" vertex="1" parent="a-Tq3ZbMfdnNFXaDVvVo-1">
          <mxGeometry x="200" y="320" width="60" height="30" as="geometry" />
        </mxCell>
        <mxCell id="_UCyFSGd0wtt6_ueAOWK-22" value="&lt;font style=&quot;font-size: 19px&quot;&gt;开放地址法&lt;/font&gt;" style="text;html=1;strokeColor=none;fillColor=none;align=center;verticalAlign=middle;whiteSpace=wrap;rounded=0;shadow=0;labelBackgroundColor=none;fontFamily=Garamond;fontColor=#808080;fontSize=19;fontStyle=1" vertex="1" parent="a-Tq3ZbMfdnNFXaDVvVo-1">
          <mxGeometry x="330" y="105" width="190" height="40" as="geometry" />
        </mxCell>
        <mxCell id="_UCyFSGd0wtt6_ueAOWK-23" value="@gufeijun" style="text;html=1;strokeColor=none;fillColor=none;align=center;verticalAlign=middle;whiteSpace=wrap;rounded=0;shadow=0;labelBackgroundColor=none;fontFamily=Times New Roman;fontSize=13;fontColor=#808080;fontStyle=0" vertex="1" parent="a-Tq3ZbMfdnNFXaDVvVo-1">
          <mxGeometry x="680" y="135" width="60" height="30" as="geometry" />
        </mxCell>
        <mxCell id="_UCyFSGd0wtt6_ueAOWK-25" value="23" style="text;html=1;strokeColor=none;fillColor=none;align=center;verticalAlign=middle;whiteSpace=wrap;rounded=0;shadow=0;labelBackgroundColor=none;fontFamily=Courier New;fontColor=#1A1A1A;" vertex="1" parent="a-Tq3ZbMfdnNFXaDVvVo-1">
          <mxGeometry x="320" y="320" width="60" height="30" as="geometry" />
        </mxCell>
        <mxCell id="_UCyFSGd0wtt6_ueAOWK-26" value="47" style="text;html=1;strokeColor=#10739e;fillColor=#b1ddf0;align=center;verticalAlign=middle;whiteSpace=wrap;rounded=0;shadow=0;labelBackgroundColor=none;fontFamily=Courier New;" vertex="1" parent="a-Tq3ZbMfdnNFXaDVvVo-1">
          <mxGeometry x="570" y="155" width="37.5" height="30" as="geometry" />
        </mxCell>
        <mxCell id="lpTOOOsr3co9YScs1jAm-0" style="edgeStyle=orthogonalEdgeStyle;rounded=0;orthogonalLoop=1;jettySize=auto;html=1;entryX=0.5;entryY=0;entryDx=0;entryDy=0;entryPerimeter=0;dashed=1;fontFamily=Courier New;fontColor=#1A1A1A;strokeColor=#808080;strokeWidth=2;exitX=0.5;exitY=1;exitDx=0;exitDy=0;" edge="1" parent="a-Tq3ZbMfdnNFXaDVvVo-1" source="_UCyFSGd0wtt6_ueAOWK-20" target="_UCyFSGd0wtt6_ueAOWK-0">
          <mxGeometry relative="1" as="geometry">
            <Array as="points">
              <mxPoint x="290" y="250" />
              <mxPoint x="290" y="250" />
            </Array>
            <mxPoint x="280" y="220" as="sourcePoint" />
            <mxPoint x="280" y="350" as="targetPoint" />
          </mxGeometry>
        </mxCell>
        <mxCell id="lpTOOOsr3co9YScs1jAm-1" value="31" style="text;html=1;strokeColor=none;fillColor=none;align=center;verticalAlign=middle;whiteSpace=wrap;rounded=0;shadow=0;labelBackgroundColor=none;fontFamily=Courier New;fontColor=#1A1A1A;" vertex="1" parent="a-Tq3ZbMfdnNFXaDVvVo-1">
          <mxGeometry x="260" y="320" width="60" height="30" as="geometry" />
        </mxCell>
        <mxCell id="lpTOOOsr3co9YScs1jAm-6" style="edgeStyle=orthogonalEdgeStyle;rounded=0;orthogonalLoop=1;jettySize=auto;html=1;exitX=0.5;exitY=1;exitDx=0;exitDy=0;entryX=0.5;entryY=0;entryDx=0;entryDy=0;entryPerimeter=0;dashed=1;fontFamily=Times New Roman;fontSize=16;fontColor=#000000;strokeColor=#808080;strokeWidth=2;" edge="1" parent="a-Tq3ZbMfdnNFXaDVvVo-1" source="lpTOOOsr3co9YScs1jAm-2" target="_UCyFSGd0wtt6_ueAOWK-2">
          <mxGeometry relative="1" as="geometry" />
        </mxCell>
        <mxCell id="lpTOOOsr3co9YScs1jAm-2" value="41" style="text;html=1;strokeColor=#10739e;fillColor=#b1ddf0;align=center;verticalAlign=middle;whiteSpace=wrap;rounded=0;shadow=0;labelBackgroundColor=none;fontFamily=Courier New;" vertex="1" parent="a-Tq3ZbMfdnNFXaDVvVo-1">
          <mxGeometry x="391.25" y="155" width="37.5" height="30" as="geometry" />
        </mxCell>
        <mxCell id="lpTOOOsr3co9YScs1jAm-7" value="41" style="text;html=1;strokeColor=none;fillColor=none;align=center;verticalAlign=middle;whiteSpace=wrap;rounded=0;shadow=0;labelBackgroundColor=none;fontFamily=Courier New;fontColor=#1A1A1A;" vertex="1" parent="a-Tq3ZbMfdnNFXaDVvVo-1">
          <mxGeometry x="380" y="320" width="60" height="30" as="geometry" />
        </mxCell>
        <mxCell id="ALCT5MxSgctErYCn64zV-0" value="buckets:" style="text;html=1;strokeColor=none;fillColor=none;align=center;verticalAlign=middle;whiteSpace=wrap;rounded=0;shadow=0;labelBackgroundColor=none;fontFamily=Times New Roman;fontSize=16;fontColor=#000000;" vertex="1" parent="a-Tq3ZbMfdnNFXaDVvVo-1">
          <mxGeometry x="80" y="320" width="60" height="30" as="geometry" />
        </mxCell>
        <mxCell id="UCH62YInZ1vmXOsResNe-0" value="keys:" style="text;html=1;strokeColor=none;fillColor=none;align=center;verticalAlign=middle;whiteSpace=wrap;rounded=0;shadow=0;labelBackgroundColor=none;fontFamily=Times New Roman;fontSize=16;fontColor=#000000;" vertex="1" parent="a-Tq3ZbMfdnNFXaDVvVo-1">
          <mxGeometry x="80" y="155" width="60" height="30" as="geometry" />
        </mxCell>
      </root>
    </mxGraphModel>
  </diagram>
  <diagram id="OU889D8KSxaTtiybUbOD" name="拉链法">
    <mxGraphModel dx="835" dy="580" grid="1" gridSize="10" guides="1" tooltips="1" connect="1" arrows="1" fold="1" page="1" pageScale="1" pageWidth="827" pageHeight="1169" math="0" shadow="0">
      <root>
        <mxCell id="J9YX2YfVc06dUFJDmvXP-0" />
        <mxCell id="J9YX2YfVc06dUFJDmvXP-1" parent="J9YX2YfVc06dUFJDmvXP-0" />
        <mxCell id="J9YX2YfVc06dUFJDmvXP-2" value="&lt;span style=&quot;color: rgba(0 , 0 , 0 , 0) ; font-family: monospace ; font-size: 0px&quot;&gt;%3CmxGraphModel%3E%3Croot%3E%3CmxCell%20id%3D%220%22%2F%3E%3CmxCell%20id%3D%221%22%20parent%3D%220%22%2F%3E%3CmxCell%20id%3D%222%22%20value%3D%22buckets%3A%22%20style%3D%22text%3Bhtml%3D1%3BstrokeColor%3Dnone%3BfillColor%3Dnone%3Balign%3Dcenter%3BverticalAlign%3Dmiddle%3BwhiteSpace%3Dwrap%3Brounded%3D0%3Bshadow%3D0%3BlabelBackgroundColor%3Dnone%3BfontFamily%3DTimes%20New%20Roman%3BfontSize%3D16%3BfontColor%3D%23000000%3B%22%20vertex%3D%221%22%20parent%3D%221%22%3E%3CmxGeometry%20x%3D%2250%22%20y%3D%22305%22%20width%3D%2260%22%20height%3D%2230%22%20as%3D%22geometry%22%2F%3E%3C%2FmxCell%3E%3C%2Froot%3E%3C%2FmxGraphModel%3E&lt;/span&gt;" style="text;html=1;align=center;verticalAlign=middle;resizable=0;points=[];autosize=1;strokeColor=none;fillColor=none;fontSize=16;fontFamily=Times New Roman;fontColor=#000000;" vertex="1" parent="J9YX2YfVc06dUFJDmvXP-1">
          <mxGeometry x="160" y="110" width="20" height="30" as="geometry" />
        </mxCell>
        <mxCell id="J9YX2YfVc06dUFJDmvXP-3" value="" style="verticalLabelPosition=bottom;verticalAlign=top;html=1;shape=mxgraph.basic.patternFillRect;fillStyle=diag;step=5;fillStrokeWidth=0.2;fillStrokeColor=#dddddd;shadow=0;" vertex="1" parent="J9YX2YfVc06dUFJDmvXP-1">
          <mxGeometry x="260" y="315" width="60" height="40" as="geometry" />
        </mxCell>
        <mxCell id="8ZSrHBDJve_RMonphnb0-23" style="edgeStyle=orthogonalEdgeStyle;rounded=0;orthogonalLoop=1;jettySize=auto;html=1;exitX=0.5;exitY=1;exitDx=0;exitDy=0;exitPerimeter=0;entryX=0.5;entryY=0;entryDx=0;entryDy=0;fontFamily=Lucida Console;fontSize=16;fontColor=#000000;strokeColor=#666666;strokeWidth=1;" edge="1" parent="J9YX2YfVc06dUFJDmvXP-1" source="J9YX2YfVc06dUFJDmvXP-4" target="8ZSrHBDJve_RMonphnb0-21">
          <mxGeometry relative="1" as="geometry" />
        </mxCell>
        <mxCell id="J9YX2YfVc06dUFJDmvXP-4" value="" style="verticalLabelPosition=bottom;verticalAlign=top;html=1;shape=mxgraph.basic.patternFillRect;fillStyle=diag;step=5;fillStrokeWidth=0.2;fillStrokeColor=#dddddd;shadow=0;" vertex="1" parent="J9YX2YfVc06dUFJDmvXP-1">
          <mxGeometry x="320" y="315" width="60" height="40" as="geometry" />
        </mxCell>
        <mxCell id="J9YX2YfVc06dUFJDmvXP-5" value="" style="verticalLabelPosition=bottom;verticalAlign=top;html=1;shape=mxgraph.basic.patternFillRect;fillStyle=diag;step=5;fillStrokeWidth=0.2;fillStrokeColor=#dddddd;shadow=0;" vertex="1" parent="J9YX2YfVc06dUFJDmvXP-1">
          <mxGeometry x="380" y="315" width="60" height="40" as="geometry" />
        </mxCell>
        <mxCell id="8ZSrHBDJve_RMonphnb0-4" style="edgeStyle=orthogonalEdgeStyle;rounded=0;orthogonalLoop=1;jettySize=auto;html=1;exitX=0.5;exitY=1;exitDx=0;exitDy=0;exitPerimeter=0;entryX=0.5;entryY=0;entryDx=0;entryDy=0;fontFamily=Times New Roman;fontSize=16;fontColor=#000000;strokeColor=#666666;strokeWidth=1;" edge="1" parent="J9YX2YfVc06dUFJDmvXP-1" source="J9YX2YfVc06dUFJDmvXP-6" target="8ZSrHBDJve_RMonphnb0-0">
          <mxGeometry relative="1" as="geometry" />
        </mxCell>
        <mxCell id="J9YX2YfVc06dUFJDmvXP-6" value="" style="verticalLabelPosition=bottom;verticalAlign=top;html=1;shape=mxgraph.basic.patternFillRect;fillStyle=diag;step=5;fillStrokeWidth=0.2;fillStrokeColor=#dddddd;shadow=0;" vertex="1" parent="J9YX2YfVc06dUFJDmvXP-1">
          <mxGeometry x="200" y="315" width="60" height="40" as="geometry" />
        </mxCell>
        <mxCell id="J9YX2YfVc06dUFJDmvXP-7" value="" style="verticalLabelPosition=bottom;verticalAlign=top;html=1;shape=mxgraph.basic.patternFillRect;fillStyle=diag;step=5;fillStrokeWidth=0.2;fillStrokeColor=#dddddd;shadow=0;" vertex="1" parent="J9YX2YfVc06dUFJDmvXP-1">
          <mxGeometry x="680" y="315" width="60" height="40" as="geometry" />
        </mxCell>
        <mxCell id="J9YX2YfVc06dUFJDmvXP-8" value="" style="verticalLabelPosition=bottom;verticalAlign=top;html=1;shape=mxgraph.basic.patternFillRect;fillStyle=diag;step=5;fillStrokeWidth=0.2;fillStrokeColor=#dddddd;shadow=0;" vertex="1" parent="J9YX2YfVc06dUFJDmvXP-1">
          <mxGeometry x="440" y="315" width="60" height="40" as="geometry" />
        </mxCell>
        <mxCell id="J9YX2YfVc06dUFJDmvXP-9" value="" style="verticalLabelPosition=bottom;verticalAlign=top;html=1;shape=mxgraph.basic.patternFillRect;fillStyle=diag;step=5;fillStrokeWidth=0.2;fillStrokeColor=#dddddd;shadow=0;" vertex="1" parent="J9YX2YfVc06dUFJDmvXP-1">
          <mxGeometry x="500" y="315" width="60" height="40" as="geometry" />
        </mxCell>
        <mxCell id="8ZSrHBDJve_RMonphnb0-25" style="edgeStyle=orthogonalEdgeStyle;rounded=0;orthogonalLoop=1;jettySize=auto;html=1;exitX=0.5;exitY=1;exitDx=0;exitDy=0;exitPerimeter=0;entryX=0.5;entryY=0;entryDx=0;entryDy=0;fontFamily=Lucida Console;fontSize=16;fontColor=#000000;strokeColor=#666666;strokeWidth=1;" edge="1" parent="J9YX2YfVc06dUFJDmvXP-1" source="J9YX2YfVc06dUFJDmvXP-10" target="8ZSrHBDJve_RMonphnb0-24">
          <mxGeometry relative="1" as="geometry" />
        </mxCell>
        <mxCell id="J9YX2YfVc06dUFJDmvXP-10" value="" style="verticalLabelPosition=bottom;verticalAlign=top;html=1;shape=mxgraph.basic.patternFillRect;fillStyle=diag;step=5;fillStrokeWidth=0.2;fillStrokeColor=#dddddd;shadow=0;" vertex="1" parent="J9YX2YfVc06dUFJDmvXP-1">
          <mxGeometry x="560" y="315" width="60" height="40" as="geometry" />
        </mxCell>
        <mxCell id="J9YX2YfVc06dUFJDmvXP-11" value="" style="verticalLabelPosition=bottom;verticalAlign=top;html=1;shape=mxgraph.basic.patternFillRect;fillStyle=diag;step=5;fillStrokeWidth=0.2;fillStrokeColor=#dddddd;shadow=0;" vertex="1" parent="J9YX2YfVc06dUFJDmvXP-1">
          <mxGeometry x="620" y="315" width="60" height="40" as="geometry" />
        </mxCell>
        <mxCell id="J9YX2YfVc06dUFJDmvXP-12" value="" style="verticalLabelPosition=bottom;verticalAlign=top;html=1;shape=mxgraph.basic.patternFillRect;fillStyle=diag;step=5;fillStrokeWidth=0.2;fillStrokeColor=#dddddd;shadow=0;" vertex="1" parent="J9YX2YfVc06dUFJDmvXP-1">
          <mxGeometry x="140" y="315" width="60" height="40" as="geometry" />
        </mxCell>
        <mxCell id="J9YX2YfVc06dUFJDmvXP-13" value="&lt;font face=&quot;Courier New&quot;&gt;HASH FUNCTION: f(key)=key%10&lt;/font&gt;" style="rounded=1;whiteSpace=wrap;html=1;shadow=0;fillColor=#ffcc99;labelBackgroundColor=none;strokeColor=#36393d;" vertex="1" parent="J9YX2YfVc06dUFJDmvXP-1">
          <mxGeometry x="160" y="245" width="550" height="30" as="geometry" />
        </mxCell>
        <mxCell id="J9YX2YfVc06dUFJDmvXP-14" style="edgeStyle=orthogonalEdgeStyle;rounded=0;orthogonalLoop=1;jettySize=auto;html=1;exitX=0.5;exitY=1;exitDx=0;exitDy=0;entryX=0.5;entryY=0;entryDx=0;entryDy=0;entryPerimeter=0;fontFamily=Courier New;fontColor=#1A1A1A;dashed=1;strokeWidth=2;strokeColor=#FF0080;" edge="1" parent="J9YX2YfVc06dUFJDmvXP-1" source="J9YX2YfVc06dUFJDmvXP-15" target="J9YX2YfVc06dUFJDmvXP-4">
          <mxGeometry relative="1" as="geometry" />
        </mxCell>
        <mxCell id="J9YX2YfVc06dUFJDmvXP-15" value="23" style="text;html=1;strokeColor=#10739e;fillColor=#b1ddf0;align=center;verticalAlign=middle;whiteSpace=wrap;rounded=0;shadow=0;labelBackgroundColor=none;fontFamily=Courier New;" vertex="1" parent="J9YX2YfVc06dUFJDmvXP-1">
          <mxGeometry x="332.5" y="175" width="37.5" height="30" as="geometry" />
        </mxCell>
        <mxCell id="J9YX2YfVc06dUFJDmvXP-16" style="edgeStyle=orthogonalEdgeStyle;rounded=0;orthogonalLoop=1;jettySize=auto;html=1;entryX=0.5;entryY=0;entryDx=0;entryDy=0;entryPerimeter=0;fontFamily=Courier New;fontColor=#1A1A1A;dashed=1;strokeWidth=2;strokeColor=#808080;" edge="1" parent="J9YX2YfVc06dUFJDmvXP-1" target="J9YX2YfVc06dUFJDmvXP-10">
          <mxGeometry relative="1" as="geometry">
            <mxPoint x="590" y="185" as="sourcePoint" />
            <mxPoint x="480" y="325" as="targetPoint" />
          </mxGeometry>
        </mxCell>
        <mxCell id="J9YX2YfVc06dUFJDmvXP-18" style="edgeStyle=orthogonalEdgeStyle;rounded=0;orthogonalLoop=1;jettySize=auto;html=1;entryX=0.5;entryY=0;entryDx=0;entryDy=0;entryPerimeter=0;fontFamily=Courier New;fontColor=#1A1A1A;strokeColor=#b46504;strokeWidth=2;fillColor=#fad7ac;dashed=1;" edge="1" parent="J9YX2YfVc06dUFJDmvXP-1" source="J9YX2YfVc06dUFJDmvXP-19" target="J9YX2YfVc06dUFJDmvXP-6">
          <mxGeometry relative="1" as="geometry">
            <Array as="points">
              <mxPoint x="230" y="240" />
              <mxPoint x="230" y="240" />
            </Array>
          </mxGeometry>
        </mxCell>
        <mxCell id="J9YX2YfVc06dUFJDmvXP-19" value="21" style="text;html=1;strokeColor=#10739e;fillColor=#b1ddf0;align=center;verticalAlign=middle;whiteSpace=wrap;rounded=0;shadow=0;labelBackgroundColor=none;fontFamily=Courier New;" vertex="1" parent="J9YX2YfVc06dUFJDmvXP-1">
          <mxGeometry x="212.5" y="175" width="35" height="30" as="geometry" />
        </mxCell>
        <mxCell id="J9YX2YfVc06dUFJDmvXP-20" value="31" style="text;html=1;strokeColor=#10739e;fillColor=#b1ddf0;align=center;verticalAlign=middle;whiteSpace=wrap;rounded=0;shadow=0;labelBackgroundColor=none;fontFamily=Courier New;" vertex="1" parent="J9YX2YfVc06dUFJDmvXP-1">
          <mxGeometry x="272.5" y="175" width="35" height="30" as="geometry" />
        </mxCell>
        <mxCell id="J9YX2YfVc06dUFJDmvXP-22" value="拉链法" style="text;html=1;strokeColor=none;fillColor=none;align=center;verticalAlign=middle;whiteSpace=wrap;rounded=0;shadow=0;labelBackgroundColor=none;fontFamily=Garamond;fontColor=#808080;fontSize=19;fontStyle=1" vertex="1" parent="J9YX2YfVc06dUFJDmvXP-1">
          <mxGeometry x="330" y="125" width="190" height="40" as="geometry" />
        </mxCell>
        <mxCell id="J9YX2YfVc06dUFJDmvXP-23" value="@gufeijun" style="text;html=1;strokeColor=none;fillColor=none;align=center;verticalAlign=middle;whiteSpace=wrap;rounded=0;shadow=0;labelBackgroundColor=none;fontFamily=Times New Roman;fontSize=13;fontColor=#808080;fontStyle=0" vertex="1" parent="J9YX2YfVc06dUFJDmvXP-1">
          <mxGeometry x="680" y="155" width="60" height="30" as="geometry" />
        </mxCell>
        <mxCell id="J9YX2YfVc06dUFJDmvXP-25" value="47" style="text;html=1;strokeColor=#10739e;fillColor=#b1ddf0;align=center;verticalAlign=middle;whiteSpace=wrap;rounded=0;shadow=0;labelBackgroundColor=none;fontFamily=Courier New;" vertex="1" parent="J9YX2YfVc06dUFJDmvXP-1">
          <mxGeometry x="570" y="175" width="37.5" height="30" as="geometry" />
        </mxCell>
        <mxCell id="J9YX2YfVc06dUFJDmvXP-26" style="edgeStyle=orthogonalEdgeStyle;rounded=0;orthogonalLoop=1;jettySize=auto;html=1;fontFamily=Courier New;fontColor=#1A1A1A;strokeColor=#b46504;strokeWidth=2;exitX=0.5;exitY=1;exitDx=0;exitDy=0;fillColor=#fad7ac;dashed=1;" edge="1" parent="J9YX2YfVc06dUFJDmvXP-1" source="J9YX2YfVc06dUFJDmvXP-20">
          <mxGeometry relative="1" as="geometry">
            <Array as="points">
              <mxPoint x="290" y="290" />
              <mxPoint x="230" y="290" />
              <mxPoint x="230" y="315" />
            </Array>
            <mxPoint x="280" y="220" as="sourcePoint" />
            <mxPoint x="230" y="315" as="targetPoint" />
          </mxGeometry>
        </mxCell>
        <mxCell id="J9YX2YfVc06dUFJDmvXP-28" style="edgeStyle=orthogonalEdgeStyle;rounded=0;orthogonalLoop=1;jettySize=auto;html=1;exitX=0.5;exitY=1;exitDx=0;exitDy=0;fontFamily=Times New Roman;fontSize=16;fontColor=#000000;strokeColor=#b46504;strokeWidth=2;entryX=0.5;entryY=0;entryDx=0;entryDy=0;entryPerimeter=0;fillColor=#fad7ac;dashed=1;" edge="1" parent="J9YX2YfVc06dUFJDmvXP-1" source="J9YX2YfVc06dUFJDmvXP-29" target="J9YX2YfVc06dUFJDmvXP-6">
          <mxGeometry relative="1" as="geometry">
            <mxPoint x="410" y="310" as="targetPoint" />
            <Array as="points">
              <mxPoint x="410" y="290" />
              <mxPoint x="230" y="290" />
            </Array>
          </mxGeometry>
        </mxCell>
        <mxCell id="J9YX2YfVc06dUFJDmvXP-29" value="41" style="text;html=1;strokeColor=#10739e;fillColor=#b1ddf0;align=center;verticalAlign=middle;whiteSpace=wrap;rounded=0;shadow=0;labelBackgroundColor=none;fontFamily=Courier New;" vertex="1" parent="J9YX2YfVc06dUFJDmvXP-1">
          <mxGeometry x="391.25" y="175" width="37.5" height="30" as="geometry" />
        </mxCell>
        <mxCell id="J9YX2YfVc06dUFJDmvXP-31" value="buckets:" style="text;html=1;strokeColor=none;fillColor=none;align=center;verticalAlign=middle;whiteSpace=wrap;rounded=0;shadow=0;labelBackgroundColor=none;fontFamily=Times New Roman;fontSize=16;fontColor=#000000;" vertex="1" parent="J9YX2YfVc06dUFJDmvXP-1">
          <mxGeometry x="80" y="320" width="60" height="30" as="geometry" />
        </mxCell>
        <mxCell id="J9YX2YfVc06dUFJDmvXP-32" value="keys:" style="text;html=1;strokeColor=none;fillColor=none;align=center;verticalAlign=middle;whiteSpace=wrap;rounded=0;shadow=0;labelBackgroundColor=none;fontFamily=Times New Roman;fontSize=16;fontColor=#000000;" vertex="1" parent="J9YX2YfVc06dUFJDmvXP-1">
          <mxGeometry x="80" y="175" width="60" height="30" as="geometry" />
        </mxCell>
        <mxCell id="8ZSrHBDJve_RMonphnb0-7" style="edgeStyle=orthogonalEdgeStyle;rounded=0;orthogonalLoop=1;jettySize=auto;html=1;exitX=0.5;exitY=1;exitDx=0;exitDy=0;entryX=0.5;entryY=0;entryDx=0;entryDy=0;fontFamily=Times New Roman;fontSize=16;fontColor=#000000;strokeColor=#666666;strokeWidth=1;" edge="1" parent="J9YX2YfVc06dUFJDmvXP-1" source="8ZSrHBDJve_RMonphnb0-0" target="8ZSrHBDJve_RMonphnb0-5">
          <mxGeometry relative="1" as="geometry" />
        </mxCell>
        <mxCell id="8ZSrHBDJve_RMonphnb0-0" value="41" style="rounded=0;whiteSpace=wrap;html=1;shadow=0;labelBackgroundColor=none;fontFamily=Times New Roman;fontSize=16;fillColor=#bac8d3;strokeColor=#23445d;" vertex="1" parent="J9YX2YfVc06dUFJDmvXP-1">
          <mxGeometry x="200" y="380" width="60" height="20" as="geometry" />
        </mxCell>
        <mxCell id="8ZSrHBDJve_RMonphnb0-8" style="edgeStyle=orthogonalEdgeStyle;rounded=0;orthogonalLoop=1;jettySize=auto;html=1;exitX=0.5;exitY=1;exitDx=0;exitDy=0;entryX=0.5;entryY=0;entryDx=0;entryDy=0;fontFamily=Times New Roman;fontSize=16;fontColor=#000000;strokeColor=#666666;strokeWidth=1;" edge="1" parent="J9YX2YfVc06dUFJDmvXP-1" source="8ZSrHBDJve_RMonphnb0-5" target="8ZSrHBDJve_RMonphnb0-6">
          <mxGeometry relative="1" as="geometry" />
        </mxCell>
        <mxCell id="8ZSrHBDJve_RMonphnb0-5" value="31" style="rounded=0;whiteSpace=wrap;html=1;shadow=0;labelBackgroundColor=none;fontFamily=Times New Roman;fontSize=16;fillColor=#bac8d3;strokeColor=#23445d;" vertex="1" parent="J9YX2YfVc06dUFJDmvXP-1">
          <mxGeometry x="200" y="420" width="60" height="20" as="geometry" />
        </mxCell>
        <mxCell id="8ZSrHBDJve_RMonphnb0-6" value="21" style="rounded=0;whiteSpace=wrap;html=1;shadow=0;labelBackgroundColor=none;fontFamily=Times New Roman;fontSize=16;fillColor=#bac8d3;strokeColor=#23445d;" vertex="1" parent="J9YX2YfVc06dUFJDmvXP-1">
          <mxGeometry x="200" y="460" width="60" height="20" as="geometry" />
        </mxCell>
        <mxCell id="8ZSrHBDJve_RMonphnb0-11" value="0" style="text;html=1;strokeColor=none;fillColor=none;align=center;verticalAlign=middle;whiteSpace=wrap;rounded=0;shadow=0;labelBackgroundColor=none;fontFamily=Lucida Console;fontSize=16;fontColor=#000000;" vertex="1" parent="J9YX2YfVc06dUFJDmvXP-1">
          <mxGeometry x="140" y="320" width="60" height="30" as="geometry" />
        </mxCell>
        <mxCell id="8ZSrHBDJve_RMonphnb0-12" value="1" style="text;html=1;strokeColor=none;fillColor=none;align=center;verticalAlign=middle;whiteSpace=wrap;rounded=0;shadow=0;labelBackgroundColor=none;fontFamily=Lucida Console;fontSize=16;fontColor=#000000;" vertex="1" parent="J9YX2YfVc06dUFJDmvXP-1">
          <mxGeometry x="200" y="320" width="60" height="30" as="geometry" />
        </mxCell>
        <mxCell id="8ZSrHBDJve_RMonphnb0-13" value="2" style="text;html=1;strokeColor=none;fillColor=none;align=center;verticalAlign=middle;whiteSpace=wrap;rounded=0;shadow=0;labelBackgroundColor=none;fontFamily=Lucida Console;fontSize=16;fontColor=#000000;" vertex="1" parent="J9YX2YfVc06dUFJDmvXP-1">
          <mxGeometry x="260" y="320" width="60" height="30" as="geometry" />
        </mxCell>
        <mxCell id="8ZSrHBDJve_RMonphnb0-14" value="7" style="text;html=1;strokeColor=none;fillColor=none;align=center;verticalAlign=middle;whiteSpace=wrap;rounded=0;shadow=0;labelBackgroundColor=none;fontFamily=Lucida Console;fontSize=16;fontColor=#000000;" vertex="1" parent="J9YX2YfVc06dUFJDmvXP-1">
          <mxGeometry x="560" y="320" width="60" height="30" as="geometry" />
        </mxCell>
        <mxCell id="8ZSrHBDJve_RMonphnb0-15" value="6" style="text;html=1;strokeColor=none;fillColor=none;align=center;verticalAlign=middle;whiteSpace=wrap;rounded=0;shadow=0;labelBackgroundColor=none;fontFamily=Lucida Console;fontSize=16;fontColor=#000000;" vertex="1" parent="J9YX2YfVc06dUFJDmvXP-1">
          <mxGeometry x="500" y="320" width="60" height="30" as="geometry" />
        </mxCell>
        <mxCell id="8ZSrHBDJve_RMonphnb0-16" value="5" style="text;html=1;strokeColor=none;fillColor=none;align=center;verticalAlign=middle;whiteSpace=wrap;rounded=0;shadow=0;labelBackgroundColor=none;fontFamily=Lucida Console;fontSize=16;fontColor=#000000;" vertex="1" parent="J9YX2YfVc06dUFJDmvXP-1">
          <mxGeometry x="440" y="320" width="60" height="30" as="geometry" />
        </mxCell>
        <mxCell id="8ZSrHBDJve_RMonphnb0-17" value="4" style="text;html=1;strokeColor=none;fillColor=none;align=center;verticalAlign=middle;whiteSpace=wrap;rounded=0;shadow=0;labelBackgroundColor=none;fontFamily=Lucida Console;fontSize=16;fontColor=#000000;" vertex="1" parent="J9YX2YfVc06dUFJDmvXP-1">
          <mxGeometry x="380" y="320" width="60" height="30" as="geometry" />
        </mxCell>
        <mxCell id="8ZSrHBDJve_RMonphnb0-18" value="3" style="text;html=1;strokeColor=none;fillColor=none;align=center;verticalAlign=middle;whiteSpace=wrap;rounded=0;shadow=0;labelBackgroundColor=none;fontFamily=Lucida Console;fontSize=16;fontColor=#000000;" vertex="1" parent="J9YX2YfVc06dUFJDmvXP-1">
          <mxGeometry x="320" y="320" width="60" height="30" as="geometry" />
        </mxCell>
        <mxCell id="8ZSrHBDJve_RMonphnb0-19" value="9" style="text;html=1;strokeColor=none;fillColor=none;align=center;verticalAlign=middle;whiteSpace=wrap;rounded=0;shadow=0;labelBackgroundColor=none;fontFamily=Lucida Console;fontSize=16;fontColor=#000000;" vertex="1" parent="J9YX2YfVc06dUFJDmvXP-1">
          <mxGeometry x="680" y="320" width="60" height="30" as="geometry" />
        </mxCell>
        <mxCell id="8ZSrHBDJve_RMonphnb0-20" value="8" style="text;html=1;strokeColor=none;fillColor=none;align=center;verticalAlign=middle;whiteSpace=wrap;rounded=0;shadow=0;labelBackgroundColor=none;fontFamily=Lucida Console;fontSize=16;fontColor=#000000;" vertex="1" parent="J9YX2YfVc06dUFJDmvXP-1">
          <mxGeometry x="620" y="320" width="60" height="30" as="geometry" />
        </mxCell>
        <mxCell id="8ZSrHBDJve_RMonphnb0-21" value="23" style="rounded=0;whiteSpace=wrap;html=1;shadow=0;labelBackgroundColor=none;fontFamily=Times New Roman;fontSize=16;fillColor=#bac8d3;strokeColor=#23445d;" vertex="1" parent="J9YX2YfVc06dUFJDmvXP-1">
          <mxGeometry x="320" y="380" width="60" height="20" as="geometry" />
        </mxCell>
        <mxCell id="8ZSrHBDJve_RMonphnb0-24" value="47" style="rounded=0;whiteSpace=wrap;html=1;shadow=0;labelBackgroundColor=none;fontFamily=Times New Roman;fontSize=16;fillColor=#bac8d3;strokeColor=#23445d;" vertex="1" parent="J9YX2YfVc06dUFJDmvXP-1">
          <mxGeometry x="560" y="380" width="60" height="20" as="geometry" />
        </mxCell>
      </root>
    </mxGraphModel>
  </diagram>
  <diagram id="H4b9Afnh0cU4RpQV90Ei" name="开放地址法中删除">
    <mxGraphModel dx="710" dy="493" grid="1" gridSize="10" guides="1" tooltips="1" connect="1" arrows="1" fold="1" page="1" pageScale="1" pageWidth="827" pageHeight="1169" math="0" shadow="0">
      <root>
        <mxCell id="rC-ULHCr0KxiMqHw4E6F-0" />
        <mxCell id="rC-ULHCr0KxiMqHw4E6F-1" parent="rC-ULHCr0KxiMqHw4E6F-0" />
        <mxCell id="v59TtW0ZB5NTCXuI3_U3-31" value="&lt;span style=&quot;color: rgba(0 , 0 , 0 , 0) ; font-family: monospace ; font-size: 0px&quot;&gt;%3CmxGraphModel%3E%3Croot%3E%3CmxCell%20id%3D%220%22%2F%3E%3CmxCell%20id%3D%221%22%20parent%3D%220%22%2F%3E%3CmxCell%20id%3D%222%22%20value%3D%22buckets%3A%22%20style%3D%22text%3Bhtml%3D1%3BstrokeColor%3Dnone%3BfillColor%3Dnone%3Balign%3Dcenter%3BverticalAlign%3Dmiddle%3BwhiteSpace%3Dwrap%3Brounded%3D0%3Bshadow%3D0%3BlabelBackgroundColor%3Dnone%3BfontFamily%3DTimes%20New%20Roman%3BfontSize%3D16%3BfontColor%3D%23000000%3B%22%20vertex%3D%221%22%20parent%3D%221%22%3E%3CmxGeometry%20x%3D%2250%22%20y%3D%22305%22%20width%3D%2260%22%20height%3D%2230%22%20as%3D%22geometry%22%2F%3E%3C%2FmxCell%3E%3C%2Froot%3E%3C%2FmxGraphModel%3E&lt;/span&gt;" style="text;html=1;align=center;verticalAlign=middle;resizable=0;points=[];autosize=1;strokeColor=none;fillColor=none;fontSize=16;fontFamily=Times New Roman;fontColor=#000000;" vertex="1" parent="rC-ULHCr0KxiMqHw4E6F-1">
          <mxGeometry x="100" y="80" width="20" height="30" as="geometry" />
        </mxCell>
        <mxCell id="v59TtW0ZB5NTCXuI3_U3-32" value="2" style="verticalLabelPosition=bottom;verticalAlign=top;html=1;shape=mxgraph.basic.patternFillRect;fillStyle=diag;step=5;fillStrokeWidth=0.2;fillStrokeColor=#dddddd;shadow=0;fillColor=#bac8d3;strokeColor=#23445d;" vertex="1" parent="rC-ULHCr0KxiMqHw4E6F-1">
          <mxGeometry x="200" y="305" width="60" height="40" as="geometry" />
        </mxCell>
        <mxCell id="v59TtW0ZB5NTCXuI3_U3-33" value="3" style="verticalLabelPosition=bottom;verticalAlign=top;html=1;shape=mxgraph.basic.patternFillRect;fillStyle=diag;step=5;fillStrokeWidth=0.2;fillStrokeColor=#dddddd;shadow=0;fillColor=#bac8d3;strokeColor=#23445d;" vertex="1" parent="rC-ULHCr0KxiMqHw4E6F-1">
          <mxGeometry x="260" y="305" width="60" height="40" as="geometry" />
        </mxCell>
        <mxCell id="v59TtW0ZB5NTCXuI3_U3-34" value="4" style="verticalLabelPosition=bottom;verticalAlign=top;html=1;shape=mxgraph.basic.patternFillRect;fillStyle=diag;step=5;fillStrokeWidth=0.2;fillStrokeColor=#dddddd;shadow=0;" vertex="1" parent="rC-ULHCr0KxiMqHw4E6F-1">
          <mxGeometry x="320" y="305" width="60" height="40" as="geometry" />
        </mxCell>
        <mxCell id="v59TtW0ZB5NTCXuI3_U3-35" value="1" style="verticalLabelPosition=bottom;verticalAlign=top;html=1;shape=mxgraph.basic.patternFillRect;fillStyle=diag;step=5;fillStrokeWidth=0.2;fillStrokeColor=#dddddd;shadow=0;fillColor=#bac8d3;strokeColor=#23445d;" vertex="1" parent="rC-ULHCr0KxiMqHw4E6F-1">
          <mxGeometry x="140" y="305" width="60" height="40" as="geometry" />
        </mxCell>
        <mxCell id="v59TtW0ZB5NTCXuI3_U3-36" value="9" style="verticalLabelPosition=bottom;verticalAlign=top;html=1;shape=mxgraph.basic.patternFillRect;fillStyle=diag;step=5;fillStrokeWidth=0.2;fillStrokeColor=#dddddd;shadow=0;" vertex="1" parent="rC-ULHCr0KxiMqHw4E6F-1">
          <mxGeometry x="620" y="305" width="60" height="40" as="geometry" />
        </mxCell>
        <mxCell id="v59TtW0ZB5NTCXuI3_U3-37" value="5" style="verticalLabelPosition=bottom;verticalAlign=top;html=1;shape=mxgraph.basic.patternFillRect;fillStyle=diag;step=5;fillStrokeWidth=0.2;fillStrokeColor=#dddddd;shadow=0;" vertex="1" parent="rC-ULHCr0KxiMqHw4E6F-1">
          <mxGeometry x="380" y="305" width="60" height="40" as="geometry" />
        </mxCell>
        <mxCell id="v59TtW0ZB5NTCXuI3_U3-38" value="6" style="verticalLabelPosition=bottom;verticalAlign=top;html=1;shape=mxgraph.basic.patternFillRect;fillStyle=diag;step=5;fillStrokeWidth=0.2;fillStrokeColor=#dddddd;shadow=0;" vertex="1" parent="rC-ULHCr0KxiMqHw4E6F-1">
          <mxGeometry x="440" y="305" width="60" height="40" as="geometry" />
        </mxCell>
        <mxCell id="v59TtW0ZB5NTCXuI3_U3-39" value="7" style="verticalLabelPosition=bottom;verticalAlign=top;html=1;shape=mxgraph.basic.patternFillRect;fillStyle=diag;step=5;fillStrokeWidth=0.2;fillStrokeColor=#dddddd;shadow=0;fillColor=#bac8d3;strokeColor=#23445d;" vertex="1" parent="rC-ULHCr0KxiMqHw4E6F-1">
          <mxGeometry x="500" y="305" width="60" height="40" as="geometry" />
        </mxCell>
        <mxCell id="v59TtW0ZB5NTCXuI3_U3-40" value="8" style="verticalLabelPosition=bottom;verticalAlign=top;html=1;shape=mxgraph.basic.patternFillRect;fillStyle=diag;step=5;fillStrokeWidth=0.2;fillStrokeColor=#dddddd;shadow=0;" vertex="1" parent="rC-ULHCr0KxiMqHw4E6F-1">
          <mxGeometry x="560" y="305" width="60" height="40" as="geometry" />
        </mxCell>
        <mxCell id="v59TtW0ZB5NTCXuI3_U3-41" value="0" style="verticalLabelPosition=bottom;verticalAlign=top;html=1;shape=mxgraph.basic.patternFillRect;fillStyle=diag;step=5;fillStrokeWidth=0.2;fillStrokeColor=#dddddd;shadow=0;" vertex="1" parent="rC-ULHCr0KxiMqHw4E6F-1">
          <mxGeometry x="80" y="305" width="60" height="40" as="geometry" />
        </mxCell>
        <mxCell id="v59TtW0ZB5NTCXuI3_U3-42" value="&lt;font face=&quot;Courier New&quot;&gt;HASH FUNCTION: f(key)=key%10&lt;/font&gt;" style="rounded=1;whiteSpace=wrap;html=1;shadow=0;fillColor=#ffcc99;labelBackgroundColor=none;strokeColor=#36393d;" vertex="1" parent="rC-ULHCr0KxiMqHw4E6F-1">
          <mxGeometry x="100" y="235" width="550" height="30" as="geometry" />
        </mxCell>
        <mxCell id="v59TtW0ZB5NTCXuI3_U3-45" style="edgeStyle=orthogonalEdgeStyle;rounded=0;orthogonalLoop=1;jettySize=auto;html=1;entryX=0.5;entryY=0;entryDx=0;entryDy=0;entryPerimeter=0;fontFamily=Courier New;fontColor=#1A1A1A;dashed=1;strokeWidth=2;strokeColor=#808080;" edge="1" parent="rC-ULHCr0KxiMqHw4E6F-1" target="v59TtW0ZB5NTCXuI3_U3-39">
          <mxGeometry relative="1" as="geometry">
            <mxPoint x="530" y="175" as="sourcePoint" />
            <mxPoint x="420" y="315" as="targetPoint" />
          </mxGeometry>
        </mxCell>
        <mxCell id="v59TtW0ZB5NTCXuI3_U3-46" value="47" style="text;html=1;strokeColor=none;fillColor=none;align=center;verticalAlign=middle;whiteSpace=wrap;rounded=0;shadow=0;labelBackgroundColor=none;fontFamily=Courier New;fontColor=#1A1A1A;" vertex="1" parent="rC-ULHCr0KxiMqHw4E6F-1">
          <mxGeometry x="500" y="310" width="60" height="30" as="geometry" />
        </mxCell>
        <mxCell id="v59TtW0ZB5NTCXuI3_U3-47" style="edgeStyle=orthogonalEdgeStyle;rounded=0;orthogonalLoop=1;jettySize=auto;html=1;entryX=0.5;entryY=0;entryDx=0;entryDy=0;entryPerimeter=0;dashed=1;fontFamily=Courier New;fontColor=#1A1A1A;strokeColor=#808080;strokeWidth=2;" edge="1" parent="rC-ULHCr0KxiMqHw4E6F-1" source="v59TtW0ZB5NTCXuI3_U3-48" target="v59TtW0ZB5NTCXuI3_U3-35">
          <mxGeometry relative="1" as="geometry">
            <Array as="points">
              <mxPoint x="170" y="230" />
              <mxPoint x="170" y="230" />
            </Array>
          </mxGeometry>
        </mxCell>
        <mxCell id="v59TtW0ZB5NTCXuI3_U3-48" value="21" style="text;html=1;strokeColor=#10739e;fillColor=#b1ddf0;align=center;verticalAlign=middle;whiteSpace=wrap;rounded=0;shadow=0;labelBackgroundColor=none;fontFamily=Courier New;" vertex="1" parent="rC-ULHCr0KxiMqHw4E6F-1">
          <mxGeometry x="152.5" y="145" width="35" height="30" as="geometry" />
        </mxCell>
        <mxCell id="v59TtW0ZB5NTCXuI3_U3-49" value="31" style="text;html=1;strokeColor=#10739e;fillColor=#b1ddf0;align=center;verticalAlign=middle;whiteSpace=wrap;rounded=0;shadow=0;labelBackgroundColor=none;fontFamily=Courier New;" vertex="1" parent="rC-ULHCr0KxiMqHw4E6F-1">
          <mxGeometry x="212.5" y="145" width="35" height="30" as="geometry" />
        </mxCell>
        <mxCell id="v59TtW0ZB5NTCXuI3_U3-50" value="21&amp;nbsp;" style="text;html=1;strokeColor=none;fillColor=none;align=center;verticalAlign=middle;whiteSpace=wrap;rounded=0;shadow=0;labelBackgroundColor=none;fontFamily=Courier New;fontColor=#1A1A1A;" vertex="1" parent="rC-ULHCr0KxiMqHw4E6F-1">
          <mxGeometry x="140" y="310" width="60" height="30" as="geometry" />
        </mxCell>
        <mxCell id="v59TtW0ZB5NTCXuI3_U3-51" value="&lt;font style=&quot;font-size: 19px&quot;&gt;开放地址法中删除&lt;/font&gt;" style="text;html=1;strokeColor=none;fillColor=none;align=center;verticalAlign=middle;whiteSpace=wrap;rounded=0;shadow=0;labelBackgroundColor=none;fontFamily=Garamond;fontColor=#808080;fontSize=19;fontStyle=1" vertex="1" parent="rC-ULHCr0KxiMqHw4E6F-1">
          <mxGeometry x="270" y="95" width="190" height="40" as="geometry" />
        </mxCell>
        <mxCell id="v59TtW0ZB5NTCXuI3_U3-52" value="@gufeijun" style="text;html=1;strokeColor=none;fillColor=none;align=center;verticalAlign=middle;whiteSpace=wrap;rounded=0;shadow=0;labelBackgroundColor=none;fontFamily=Times New Roman;fontSize=13;fontColor=#808080;fontStyle=0" vertex="1" parent="rC-ULHCr0KxiMqHw4E6F-1">
          <mxGeometry x="620" y="125" width="60" height="30" as="geometry" />
        </mxCell>
        <mxCell id="v59TtW0ZB5NTCXuI3_U3-54" value="47" style="text;html=1;strokeColor=#10739e;fillColor=#b1ddf0;align=center;verticalAlign=middle;whiteSpace=wrap;rounded=0;shadow=0;labelBackgroundColor=none;fontFamily=Courier New;" vertex="1" parent="rC-ULHCr0KxiMqHw4E6F-1">
          <mxGeometry x="510" y="145" width="37.5" height="30" as="geometry" />
        </mxCell>
        <mxCell id="v59TtW0ZB5NTCXuI3_U3-55" style="edgeStyle=orthogonalEdgeStyle;rounded=0;orthogonalLoop=1;jettySize=auto;html=1;entryX=0.5;entryY=0;entryDx=0;entryDy=0;entryPerimeter=0;dashed=1;fontFamily=Courier New;fontColor=#1A1A1A;strokeColor=#808080;strokeWidth=2;exitX=0.5;exitY=1;exitDx=0;exitDy=0;" edge="1" parent="rC-ULHCr0KxiMqHw4E6F-1" source="v59TtW0ZB5NTCXuI3_U3-49" target="v59TtW0ZB5NTCXuI3_U3-32">
          <mxGeometry relative="1" as="geometry">
            <Array as="points">
              <mxPoint x="230" y="240" />
              <mxPoint x="230" y="240" />
            </Array>
            <mxPoint x="220" y="210" as="sourcePoint" />
            <mxPoint x="220" y="340" as="targetPoint" />
          </mxGeometry>
        </mxCell>
        <mxCell id="v59TtW0ZB5NTCXuI3_U3-57" style="edgeStyle=orthogonalEdgeStyle;rounded=0;orthogonalLoop=1;jettySize=auto;html=1;exitX=0.5;exitY=1;exitDx=0;exitDy=0;entryX=0.5;entryY=0;entryDx=0;entryDy=0;entryPerimeter=0;dashed=1;fontFamily=Times New Roman;fontSize=16;fontColor=#000000;strokeColor=#808080;strokeWidth=2;" edge="1" parent="rC-ULHCr0KxiMqHw4E6F-1" source="v59TtW0ZB5NTCXuI3_U3-58" target="v59TtW0ZB5NTCXuI3_U3-33">
          <mxGeometry relative="1" as="geometry" />
        </mxCell>
        <mxCell id="v59TtW0ZB5NTCXuI3_U3-58" value="41" style="text;html=1;strokeColor=#10739e;fillColor=#b1ddf0;align=center;verticalAlign=middle;whiteSpace=wrap;rounded=0;shadow=0;labelBackgroundColor=none;fontFamily=Courier New;" vertex="1" parent="rC-ULHCr0KxiMqHw4E6F-1">
          <mxGeometry x="271.25" y="145" width="37.5" height="30" as="geometry" />
        </mxCell>
        <mxCell id="v59TtW0ZB5NTCXuI3_U3-60" value="buckets:" style="text;html=1;strokeColor=none;fillColor=none;align=center;verticalAlign=middle;whiteSpace=wrap;rounded=0;shadow=0;labelBackgroundColor=none;fontFamily=Times New Roman;fontSize=16;fontColor=#000000;" vertex="1" parent="rC-ULHCr0KxiMqHw4E6F-1">
          <mxGeometry x="20" y="310" width="60" height="30" as="geometry" />
        </mxCell>
        <mxCell id="v59TtW0ZB5NTCXuI3_U3-61" value="keys:" style="text;html=1;strokeColor=none;fillColor=none;align=center;verticalAlign=middle;whiteSpace=wrap;rounded=0;shadow=0;labelBackgroundColor=none;fontFamily=Times New Roman;fontSize=16;fontColor=#000000;" vertex="1" parent="rC-ULHCr0KxiMqHw4E6F-1">
          <mxGeometry x="20" y="145" width="60" height="30" as="geometry" />
        </mxCell>
        <mxCell id="v59TtW0ZB5NTCXuI3_U3-62" value="41" style="text;html=1;strokeColor=none;fillColor=none;align=center;verticalAlign=middle;whiteSpace=wrap;rounded=0;shadow=0;labelBackgroundColor=none;fontFamily=Courier New;fontColor=#1A1A1A;" vertex="1" parent="rC-ULHCr0KxiMqHw4E6F-1">
          <mxGeometry x="260" y="310" width="60" height="30" as="geometry" />
        </mxCell>
        <mxCell id="v59TtW0ZB5NTCXuI3_U3-65" value="" style="shape=image;html=1;verticalAlign=top;verticalLabelPosition=bottom;labelBackgroundColor=#ffffff;imageAspect=0;aspect=fixed;image=https://cdn3.iconfinder.com/data/icons/flat-actions-icons-9/792/Close_Icon-128.png;shadow=0;fontFamily=Lucida Console;fontSize=16;fontColor=#000000;fillColor=default;" vertex="1" parent="rC-ULHCr0KxiMqHw4E6F-1">
          <mxGeometry x="200" y="297" width="56" height="56" as="geometry" />
        </mxCell>
        <mxCell id="v59TtW0ZB5NTCXuI3_U3-56" value="31" style="text;html=1;strokeColor=none;fillColor=none;align=center;verticalAlign=middle;whiteSpace=wrap;rounded=0;shadow=0;labelBackgroundColor=none;fontFamily=Courier New;fontColor=#1A1A1A;" vertex="1" parent="rC-ULHCr0KxiMqHw4E6F-1">
          <mxGeometry x="200" y="310" width="60" height="30" as="geometry" />
        </mxCell>
        <mxCell id="v59TtW0ZB5NTCXuI3_U3-66" value="&lt;font style=&quot;font-size: 11px&quot;&gt;删除31后，能够将桶2标记为空桶吗？&lt;/font&gt;" style="whiteSpace=wrap;html=1;shape=mxgraph.basic.cloud_callout;shadow=0;labelBackgroundColor=none;fontFamily=Lucida Console;fontSize=16;fontColor=#000000;fillColor=default;rotation=0;" vertex="1" parent="rC-ULHCr0KxiMqHw4E6F-1">
          <mxGeometry x="247.5" y="210" width="142.5" height="87" as="geometry" />
        </mxCell>
      </root>
    </mxGraphModel>
  </diagram>
</mxfile>
